<svg width="2788" height="2315" viewBox="0 0 2788 2315" fill="none" xmlns="http://www.w3.org/2000/svg">
<g filter="url(#filter0_f_0_2)">
<path fill-rule="evenodd" clip-rule="evenodd" d="M1108.5 2297.5H1048.62C987.446 2297.5 973 2287.5 973 2287.5V2297.06C973 2297.34 973.114 2297.6 973.341 2297.77C975.758 2299.54 991.984 2309.5 1051.7 2309.5H1108.5H1115H1674H1694H1737.3C1797.02 2309.5 1813.24 2299.54 1815.66 2297.77C1815.89 2297.6 1816 2297.34 1816 2297.06V2287.5C1816 2287.5 1801.55 2297.5 1740.38 2297.5H1694H1674H1115H1108.5Z" fill="black" fill-opacity="0.7"/>
</g>
<path fill-rule="evenodd" clip-rule="evenodd" d="M1118 1917.5C1118 1917.5 1103.42 2170.38 1080.15 2204.57C1067.66 2222.94 983.46 2274.1 974.267 2281.8C965.073 2289.5 973.599 2291.47 973.599 2291.47C973.599 2291.47 1000.81 2300.99 1031.44 2302.98C1050.83 2304.24 1071.15 2302.81 1085.79 2302.93C1130.19 2303.28 1219 2303.01 1219 2303.01H1569C1569 2303.01 1657.8 2303.28 1702.21 2302.93C1716.85 2302.81 1737.17 2304.24 1756.56 2302.98C1787.18 2300.99 1814.41 2291.96 1814.41 2291.96C1814.41 2291.96 1822.92 2289.5 1813.73 2281.8C1804.53 2274.1 1720.34 2222.94 1707.84 2204.57C1684.58 2170.38 1670 1917.5 1670 1917.5H1593.25H1208.5H1118Z" fill="url(#paint0_linear_0_2)"/>
<path fill-rule="evenodd" clip-rule="evenodd" d="M1118 1917.5C1118 1917.5 1103.42 2170.38 1080.15 2204.57C1067.66 2222.94 983.46 2274.1 974.267 2281.8C965.073 2289.5 973.599 2291.47 973.599 2291.47C973.599 2291.47 1000.81 2300.99 1031.44 2302.98C1050.83 2304.24 1071.15 2302.81 1085.79 2302.93C1130.19 2303.28 1219 2303.01 1219 2303.01H1569C1569 2303.01 1657.8 2303.28 1702.21 2302.93C1716.85 2302.81 1737.17 2304.24 1756.56 2302.98C1787.18 2300.99 1814.41 2291.96 1814.41 2291.96C1814.41 2291.96 1822.92 2289.5 1813.73 2281.8C1804.53 2274.1 1720.34 2222.94 1707.84 2204.57C1684.58 2170.38 1670 1917.5 1670 1917.5H1593.25H1208.5H1118Z" fill="url(#paint1_linear_0_2)" fill-opacity="0.9" style="mix-blend-mode:soft-light"/>
<path fill-rule="evenodd" clip-rule="evenodd" d="M1118 1917.5C1118 1917.5 1103.42 2170.38 1080.15 2204.57C1067.66 2222.94 983.46 2274.1 974.267 2281.8C965.073 2289.5 973.599 2291.47 973.599 2291.47C973.599 2291.47 1000.81 2300.99 1031.44 2302.98C1050.83 2304.24 1071.15 2302.81 1085.79 2302.93C1130.19 2303.28 1219 2303.01 1219 2303.01H1569C1569 2303.01 1657.8 2303.28 1702.21 2302.93C1716.85 2302.81 1737.17 2304.24 1756.56 2302.98C1787.18 2300.99 1814.41 2291.96 1814.41 2291.96C1814.41 2291.96 1822.92 2289.5 1813.73 2281.8C1804.53 2274.1 1720.34 2222.94 1707.84 2204.57C1684.58 2170.38 1670 1917.5 1670 1917.5H1593.25H1208.5H1118Z" fill="url(#paint2_radial_0_2)" style="mix-blend-mode:soft-light"/>
<path fill-rule="evenodd" clip-rule="evenodd" d="M1118 1917.5C1118 1917.5 1103.42 2170.38 1080.15 2204.57C1067.66 2222.94 983.46 2274.1 974.267 2281.8C965.073 2289.5 973.599 2291.47 973.599 2291.47C973.599 2291.47 1000.81 2300.99 1031.44 2302.98C1050.83 2304.24 1071.15 2302.81 1085.79 2302.93C1130.19 2303.28 1219 2303.01 1219 2303.01H1569C1569 2303.01 1657.8 2303.28 1702.21 2302.93C1716.85 2302.81 1737.17 2304.24 1756.56 2302.98C1787.18 2300.99 1814.41 2291.96 1814.41 2291.96C1814.41 2291.96 1822.92 2289.5 1813.73 2281.8C1804.53 2274.1 1720.34 2222.94 1707.84 2204.57C1684.58 2170.38 1670 1917.5 1670 1917.5H1593.25H1208.5H1118Z" fill="url(#paint3_radial_0_2)" style="mix-blend-mode:soft-light"/>
<path fill-rule="evenodd" clip-rule="evenodd" d="M1118 1917.5C1118 1917.5 1103.42 2170.38 1080.15 2204.57C1067.66 2222.94 983.46 2274.1 974.267 2281.8C965.073 2289.5 973.599 2291.47 973.599 2291.47C973.599 2291.47 1000.81 2300.99 1031.44 2302.98C1050.83 2304.24 1071.15 2302.81 1085.79 2302.93C1130.19 2303.28 1219 2303.01 1219 2303.01H1569C1569 2303.01 1657.8 2303.28 1702.21 2302.93C1716.85 2302.81 1737.17 2304.24 1756.56 2302.98C1787.18 2300.99 1814.41 2291.96 1814.41 2291.96C1814.41 2291.96 1822.92 2289.5 1813.73 2281.8C1804.53 2274.1 1720.34 2222.94 1707.84 2204.57C1684.58 2170.38 1670 1917.5 1670 1917.5H1593.25H1208.5H1118Z" fill="url(#paint4_radial_0_2)" fill-opacity="0.5" style="mix-blend-mode:soft-light"/>
<path fill-rule="evenodd" clip-rule="evenodd" d="M1118 1917.5C1118 1917.5 1103.42 2170.38 1080.15 2204.57C1067.66 2222.94 983.46 2274.1 974.267 2281.8C965.073 2289.5 973.599 2291.47 973.599 2291.47C973.599 2291.47 1000.81 2300.99 1031.44 2302.98C1050.83 2304.24 1071.15 2302.81 1085.79 2302.93C1130.19 2303.28 1219 2303.01 1219 2303.01H1569C1569 2303.01 1657.8 2303.28 1702.21 2302.93C1716.85 2302.81 1737.17 2304.24 1756.56 2302.98C1787.18 2300.99 1814.41 2291.96 1814.41 2291.96C1814.41 2291.96 1822.92 2289.5 1813.73 2281.8C1804.53 2274.1 1720.34 2222.94 1707.84 2204.57C1684.58 2170.38 1670 1917.5 1670 1917.5H1593.25H1208.5H1118Z" fill="url(#paint5_radial_0_2)" fill-opacity="0.5" style="mix-blend-mode:soft-light"/>
<path fill-rule="evenodd" clip-rule="evenodd" d="M1118 1917.5C1118 1917.5 1103.42 2170.38 1080.15 2204.57C1067.66 2222.94 983.46 2274.1 974.267 2281.8C965.073 2289.5 973.599 2291.47 973.599 2291.47C973.599 2291.47 1000.81 2300.99 1031.44 2302.98C1050.83 2304.24 1071.15 2302.81 1085.79 2302.93C1130.19 2303.28 1219 2303.01 1219 2303.01H1569C1569 2303.01 1657.8 2303.28 1702.21 2302.93C1716.85 2302.81 1737.17 2304.24 1756.56 2302.98C1787.18 2300.99 1814.41 2291.96 1814.41 2291.96C1814.41 2291.96 1822.92 2289.5 1813.73 2281.8C1804.53 2274.1 1720.34 2222.94 1707.84 2204.57C1684.58 2170.38 1670 1917.5 1670 1917.5H1593.25H1208.5H1118Z" fill="url(#paint6_radial_0_2)" fill-opacity="0.6" style="mix-blend-mode:luminosity"/>
<path fill-rule="evenodd" clip-rule="evenodd" d="M1118 1917.5C1118 1917.5 1103.42 2170.38 1080.15 2204.57C1067.66 2222.94 983.46 2274.1 974.267 2281.8C965.073 2289.5 973.599 2291.47 973.599 2291.47C973.599 2291.47 1000.81 2300.99 1031.44 2302.98C1050.83 2304.24 1071.15 2302.81 1085.79 2302.93C1130.19 2303.28 1219 2303.01 1219 2303.01H1569C1569 2303.01 1657.8 2303.28 1702.21 2302.93C1716.85 2302.81 1737.17 2304.24 1756.56 2302.98C1787.18 2300.99 1814.41 2291.96 1814.41 2291.96C1814.41 2291.96 1822.92 2289.5 1813.73 2281.8C1804.53 2274.1 1720.34 2222.94 1707.84 2204.57C1684.58 2170.38 1670 1917.5 1670 1917.5H1593.25H1208.5H1118Z" fill="url(#paint7_radial_0_2)" fill-opacity="0.6" style="mix-blend-mode:luminosity"/>
<g filter="url(#filter1_d_0_2)">
<path fill-rule="evenodd" clip-rule="evenodd" d="M1684.75 2298.61H1742.38C1803.55 2298.61 1817.59 2287.57 1817.59 2287.57C1817.82 2287.42 1818 2287.52 1818 2287.79V2291.23C1818 2292.32 1817.3 2293.73 1816.36 2294.33C1816.36 2294.33 1804.86 2305.5 1739.3 2305.5H1684.75H1110H1048.7C983.144 2305.5 971.636 2294.33 971.636 2294.33C970.704 2293.73 970 2292.32 970 2291.23L970 2287.79C970 2287.52 970.182 2287.42 970.408 2287.57C970.408 2287.57 984.446 2298.61 1045.62 2298.61H1110H1684.75Z" fill="url(#paint8_linear_0_2)"/>
</g>
<g filter="url(#filter2_d_0_2)">
<path d="M0 1664.5H2788V1855.5C2788 1889.74 2760.24 1917.5 2726 1917.5H61.9999C27.7583 1917.5 0 1889.74 0 1855.5V1664.5Z" fill="url(#paint9_linear_0_2)"/>
</g>
<path fill-rule="evenodd" clip-rule="evenodd" d="M1394.82 1761.5C1399.17 1761.5 1407.24 1755.52 1417.74 1755.52C1435.81 1755.52 1442.92 1768.39 1442.92 1768.39C1442.92 1768.39 1429.02 1775.5 1429.02 1792.77C1429.02 1812.24 1446.34 1818.96 1446.34 1818.96C1446.34 1818.96 1434.23 1853.06 1417.87 1853.06C1410.36 1853.06 1404.52 1848 1396.6 1848C1388.53 1848 1380.53 1853.25 1375.31 1853.25C1360.37 1853.25 1341.5 1820.9 1341.5 1794.89C1341.5 1769.3 1357.47 1755.88 1372.46 1755.88C1382.2 1755.88 1389.76 1761.5 1394.82 1761.5Z" fill="black"/>
<path fill-rule="evenodd" clip-rule="evenodd" d="M1399.35 1735.77C1407.8 1724.63 1419.54 1724.57 1419.54 1724.57C1419.54 1724.57 1421.29 1735.05 1412.9 1745.14C1403.93 1755.92 1393.75 1754.16 1393.75 1754.16C1393.75 1754.16 1391.83 1745.68 1399.35 1735.77Z" fill="black"/>
<path d="M0 67.5C0 30.4969 29.9969 0.5 67 0.5H2721C2758 0.5 2788 30.4969 2788 67.5V1662.5H0V67.5Z" fill="#030303"/>
<path fill-rule="evenodd" clip-rule="evenodd" d="M1391.5 58.5C1397.3 58.5 1402 53.799 1402 48C1402 42.201 1397.3 37.5 1391.5 37.5C1385.7 37.5 1381 42.201 1381 48C1381 53.799 1385.7 58.5 1391.5 58.5Z" fill="url(#paint10_radial_0_2)"/>
<g filter="url(#filter3_d_0_2)">
<path fill-rule="evenodd" clip-rule="evenodd" d="M1391.5 53.431C1394.5 53.431 1396.93 50.9995 1396.93 48C1396.93 45.0005 1394.5 42.569 1391.5 42.569C1388.5 42.569 1386.07 45.0005 1386.07 48C1386.07 50.9995 1388.5 53.431 1391.5 53.431Z" fill="url(#paint11_radial_0_2)"/>
</g>
<mask id="mask0_0_2" style="mask-type:alpha" maskUnits="userSpaceOnUse" x="1386" y="42" width="11" height="12">
<path fill-rule="evenodd" clip-rule="evenodd" d="M1391.5 53.431C1394.5 53.431 1396.93 50.9995 1396.93 48C1396.93 45.0005 1394.5 42.569 1391.5 42.569C1388.5 42.569 1386.07 45.0005 1386.07 48C1386.07 50.9995 1388.5 53.431 1391.5 53.431Z" fill="white"/>
</mask>
<g mask="url(#mask0_0_2)">
<g filter="url(#filter4_f_0_2)">
<path fill-rule="evenodd" clip-rule="evenodd" d="M1396.57 46.1897C1397.17 46.1897 1397.66 45.7033 1397.66 45.1034C1397.66 44.5036 1397.17 44.0172 1396.57 44.0172C1395.97 44.0172 1395.48 44.5036 1395.48 45.1034C1395.48 45.7033 1395.97 46.1897 1396.57 46.1897Z" fill="#2F3046"/>
</g>
<g filter="url(#filter5_f_0_2)">
<path fill-rule="evenodd" clip-rule="evenodd" d="M1396.57 46.1897C1397.17 46.1897 1397.66 45.7033 1397.66 45.1034C1397.66 44.5036 1397.17 44.0172 1396.57 44.0172C1395.97 44.0172 1395.48 44.5036 1395.48 45.1034C1395.48 45.7033 1395.97 46.1897 1396.57 46.1897Z" fill="#21271B"/>
</g>
<g filter="url(#filter6_f_0_2)">
<path fill-rule="evenodd" clip-rule="evenodd" d="M1390.58 46.0535C1391.8 45.3749 1392.56 44.3994 1392.27 43.8747C1391.98 43.35 1390.75 43.4748 1389.53 44.1534C1388.3 44.832 1387.54 45.8075 1387.84 46.3322C1388.13 46.8569 1389.35 46.7321 1390.58 46.0535Z" fill="#323137"/>
</g>
<g filter="url(#filter7_f_0_2)">
<path fill-rule="evenodd" clip-rule="evenodd" d="M1392.92 50.4363C1394.27 50.0505 1395.05 48.6469 1394.66 47.3014C1394.27 45.9559 1392.87 45.1779 1391.53 45.5637C1390.18 45.9495 1389.4 47.3531 1389.79 48.6986C1390.17 50.0441 1391.58 50.8221 1392.92 50.4363Z" fill="url(#paint12_radial_0_2)"/>
</g>
<g filter="url(#filter8_f_0_2)">
<path fill-rule="evenodd" clip-rule="evenodd" d="M1391.66 50.0461C1392.06 50.0461 1392.38 49.7219 1392.38 49.322C1392.38 48.922 1392.06 48.5978 1391.66 48.5978C1391.26 48.5978 1390.94 48.922 1390.94 49.322C1390.94 49.7219 1391.26 50.0461 1391.66 50.0461Z" fill="#505760"/>
</g>
</g>
<rect x="111" y="119.5" width="2564" height="1443" fill="#202020"/>
<rect x="114" y="121.5" width="2560" height="1440" fill="#1D2129"/>
<defs>
<filter id="filter0_f_0_2" x="967.563" y="2282.06" width="853.873" height="32.8731" filterUnits="userSpaceOnUse" color-interpolation-filters="sRGB">
<feFlood flood-opacity="0" result="BackgroundImageFix"/>
<feBlend mode="normal" in="SourceGraphic" in2="BackgroundImageFix" result="shape"/>
<feGaussianBlur stdDeviation="2.71828" result="effect1_foregroundBlur_0_2"/>
</filter>
<filter id="filter1_d_0_2" x="970" y="2286.5" width="848" height="19" filterUnits="userSpaceOnUse" color-interpolation-filters="sRGB">
<feFlood flood-opacity="0" result="BackgroundImageFix"/>
<feColorMatrix in="SourceAlpha" type="matrix" values="0 0 0 0 0 0 0 0 0 0 0 0 0 0 0 0 0 0 127 0" result="hardAlpha"/>
<feOffset dy="-1"/>
<feColorMatrix type="matrix" values="0 0 0 0 1 0 0 0 0 1 0 0 0 0 1 0 0 0 0.4 0"/>
<feBlend mode="normal" in2="BackgroundImageFix" result="effect1_dropShadow_0_2"/>
<feBlend mode="normal" in="SourceGraphic" in2="effect1_dropShadow_0_2" result="shape"/>
</filter>
<filter id="filter2_d_0_2" x="0" y="1662.5" width="2788" height="255" filterUnits="userSpaceOnUse" color-interpolation-filters="sRGB">
<feFlood flood-opacity="0" result="BackgroundImageFix"/>
<feColorMatrix in="SourceAlpha" type="matrix" values="0 0 0 0 0 0 0 0 0 0 0 0 0 0 0 0 0 0 127 0" result="hardAlpha"/>
<feOffset dy="-2"/>
<feColorMatrix type="matrix" values="0 0 0 0 0 0 0 0 0 0 0 0 0 0 0 0 0 0 0.3 0"/>
<feBlend mode="normal" in2="BackgroundImageFix" result="effect1_dropShadow_0_2"/>
<feBlend mode="normal" in="SourceGraphic" in2="effect1_dropShadow_0_2" result="shape"/>
</filter>
<filter id="filter3_d_0_2" x="1385.07" y="41.569" width="12.8621" height="12.8621" filterUnits="userSpaceOnUse" color-interpolation-filters="sRGB">
<feFlood flood-opacity="0" result="BackgroundImageFix"/>
<feColorMatrix in="SourceAlpha" type="matrix" values="0 0 0 0 0 0 0 0 0 0 0 0 0 0 0 0 0 0 127 0" result="hardAlpha"/>
<feOffset/>
<feGaussianBlur stdDeviation="0.5"/>
<feColorMatrix type="matrix" values="0 0 0 0 0 0 0 0 0 0 0 0 0 0 0 0 0 0 0.4 0"/>
<feBlend mode="normal" in2="BackgroundImageFix" result="effect1_dropShadow_0_2"/>
<feBlend mode="normal" in="SourceGraphic" in2="effect1_dropShadow_0_2" result="shape"/>
</filter>
<filter id="filter4_f_0_2" x="1394.12" y="42.6581" width="4.89065" height="4.89069" filterUnits="userSpaceOnUse" color-interpolation-filters="sRGB">
<feFlood flood-opacity="0" result="BackgroundImageFix"/>
<feBlend mode="normal" in="SourceGraphic" in2="BackgroundImageFix" result="shape"/>
<feGaussianBlur stdDeviation="0.67957" result="effect1_foregroundBlur_0_2"/>
</filter>
<filter id="filter5_f_0_2" x="1394.12" y="42.6581" width="4.89065" height="4.89069" filterUnits="userSpaceOnUse" color-interpolation-filters="sRGB">
<feFlood flood-opacity="0" result="BackgroundImageFix"/>
<feBlend mode="normal" in="SourceGraphic" in2="BackgroundImageFix" result="shape"/>
<feGaussianBlur stdDeviation="0.67957" result="effect1_foregroundBlur_0_2"/>
</filter>
<filter id="filter6_f_0_2" x="1386.41" y="42.1911" width="7.27614" height="5.82477" filterUnits="userSpaceOnUse" color-interpolation-filters="sRGB">
<feFlood flood-opacity="0" result="BackgroundImageFix"/>
<feBlend mode="normal" in="SourceGraphic" in2="BackgroundImageFix" result="shape"/>
<feGaussianBlur stdDeviation="0.67957" result="effect1_foregroundBlur_0_2"/>
</filter>
<filter id="filter7_f_0_2" x="1388.33" y="44.1057" width="7.78859" height="7.78856" filterUnits="userSpaceOnUse" color-interpolation-filters="sRGB">
<feFlood flood-opacity="0" result="BackgroundImageFix"/>
<feBlend mode="normal" in="SourceGraphic" in2="BackgroundImageFix" result="shape"/>
<feGaussianBlur stdDeviation="0.67957" result="effect1_foregroundBlur_0_2"/>
</filter>
<filter id="filter8_f_0_2" x="1389.58" y="47.2387" width="4.16652" height="4.16655" filterUnits="userSpaceOnUse" color-interpolation-filters="sRGB">
<feFlood flood-opacity="0" result="BackgroundImageFix"/>
<feBlend mode="normal" in="SourceGraphic" in2="BackgroundImageFix" result="shape"/>
<feGaussianBlur stdDeviation="0.67957" result="effect1_foregroundBlur_0_2"/>
</filter>
<linearGradient id="paint0_linear_0_2" x1="970" y1="1917.5" x2="970" y2="2303.5" gradientUnits="userSpaceOnUse">
<stop stop-color="#808084"/>
<stop offset="0.0854131" stop-color="#95979B"/>
<stop offset="0.190646" stop-color="#B2B4B8"/>
<stop offset="0.387487" stop-color="#D7D7DA"/>
<stop offset="0.512084" stop-color="#DDDDDF"/>
<stop offset="0.583651" stop-color="white"/>
<stop offset="0.665405" stop-color="#919296"/>
<stop offset="0.744936" stop-color="#7A7B7F"/>
<stop offset="0.80397" stop-color="#A0A2A9"/>
<stop offset="0.873405" stop-color="#A9AAAE"/>
<stop offset="0.980985" stop-color="#A7A8AD"/>
<stop offset="0.988443" stop-color="#B7B7BD"/>
<stop offset="1" stop-color="#D2D3D5"/>
<stop offset="1" stop-color="#999AA0"/>
</linearGradient>
<linearGradient id="paint1_linear_0_2" x1="970" y1="1917.5" x2="970" y2="2303.5" gradientUnits="userSpaceOnUse">
<stop stop-color="white" stop-opacity="0.01"/>
<stop offset="0.462207" stop-color="white" stop-opacity="0.01"/>
<stop offset="0.565075" stop-color="white"/>
<stop offset="0.655147" stop-color="white" stop-opacity="0.01"/>
<stop offset="1" stop-color="white" stop-opacity="0.01"/>
</linearGradient>
<radialGradient id="paint2_radial_0_2" cx="0" cy="0" r="1" gradientUnits="userSpaceOnUse" gradientTransform="translate(1038.48 2269.56) rotate(18.5935) scale(106.431 86.5557)">
<stop stop-color="#E9EAEC"/>
<stop offset="1" stop-color="white" stop-opacity="0.01"/>
</radialGradient>
<radialGradient id="paint3_radial_0_2" cx="0" cy="0" r="1" gradientUnits="userSpaceOnUse" gradientTransform="translate(1755.34 2266.97) rotate(63.1333) scale(105.939 221.1)">
<stop stop-color="#E9EAEC"/>
<stop offset="1" stop-color="white" stop-opacity="0.01"/>
</radialGradient>
<radialGradient id="paint4_radial_0_2" cx="0" cy="0" r="1" gradientUnits="userSpaceOnUse" gradientTransform="translate(1100.44 2289.76) rotate(90) scale(70.1444 154.1)">
<stop stop-color="white" stop-opacity="0.818784"/>
<stop offset="1" stop-color="white" stop-opacity="0.01"/>
</radialGradient>
<radialGradient id="paint5_radial_0_2" cx="0" cy="0" r="1" gradientUnits="userSpaceOnUse" gradientTransform="translate(1690.07 2289.87) rotate(90) scale(68.5721 150.645)">
<stop stop-color="white" stop-opacity="0.82"/>
<stop offset="1" stop-color="white" stop-opacity="0.01"/>
</radialGradient>
<radialGradient id="paint6_radial_0_2" cx="0" cy="0" r="1" gradientUnits="userSpaceOnUse" gradientTransform="translate(1774.95 2247.08) rotate(47.2129) scale(98.7732 75.0589)">
<stop stop-color="white"/>
<stop offset="1" stop-color="white" stop-opacity="0.01"/>
</radialGradient>
<radialGradient id="paint7_radial_0_2" cx="0" cy="0" r="1" gradientUnits="userSpaceOnUse" gradientTransform="translate(1009.75 2252.68) rotate(136.448) scale(108.315 71.6232)">
<stop stop-color="white"/>
<stop offset="1" stop-color="white" stop-opacity="0.01"/>
</radialGradient>
<linearGradient id="paint8_linear_0_2" x1="964.814" y1="2309.07" x2="1601.51" y2="2675.97" gradientUnits="userSpaceOnUse">
<stop stop-color="#8B8C8E"/>
<stop offset="0.0649384" stop-color="#8B8B8F"/>
<stop offset="0.177183" stop-color="#E4E6E8"/>
<stop offset="0.504551" stop-color="#DBDBDD"/>
<stop offset="0.760947" stop-color="#D4D4D8"/>
<stop offset="0.940085" stop-color="#B4B5B9"/>
<stop offset="1" stop-color="#818286"/>
</linearGradient>
<linearGradient id="paint9_linear_0_2" x1="0" y1="1917.5" x2="2788" y2="1917.5" gradientUnits="userSpaceOnUse">
<stop stop-color="#A5A6AA"/>
<stop offset="0.217316" stop-color="#A6A8AC"/>
<stop offset="0.26909" stop-color="#ACAEB2"/>
<stop offset="0.367564" stop-color="#B5B6BA"/>
<stop offset="0.460191" stop-color="#BEBFC3"/>
<stop offset="0.534291" stop-color="#C3C4C8"/>
<stop offset="0.633293" stop-color="#CDCED1"/>
<stop offset="0.776406" stop-color="#D9DADC"/>
<stop offset="0.953296" stop-color="#E0E1E2"/>
<stop offset="1" stop-color="#E0E2E2"/>
</linearGradient>
<radialGradient id="paint10_radial_0_2" cx="0" cy="0" r="1" gradientUnits="userSpaceOnUse" gradientTransform="translate(1377.74 67.2485) rotate(116.906) scale(19.3314)">
<stop stop-color="white"/>
<stop offset="0.0281362" stop-color="#CECECE" stop-opacity="0.767503"/>
<stop offset="1" stop-color="#252525"/>
</radialGradient>
<radialGradient id="paint11_radial_0_2" cx="0" cy="0" r="1" gradientUnits="userSpaceOnUse" gradientTransform="translate(1391.5 42.569) rotate(90) scale(10.8621)">
<stop stop-color="#2F2E32"/>
<stop offset="1" stop-color="#101518"/>
</radialGradient>
<radialGradient id="paint12_radial_0_2" cx="0" cy="0" r="1" gradientUnits="userSpaceOnUse" gradientTransform="translate(1391 46.5359) rotate(74) scale(4.00443)">
<stop stop-color="#101722"/>
<stop offset="1" stop-color="#525669"/>
</radialGradient>
</defs>
</svg>
